<svg xmlns="http://www.w3.org/2000/svg" viewBox="0 0 85.04 74.68"><defs><style>.a{fill:#fff;}</style></defs><title>logo</title><path class="a" d="M10.44,27.08c-.1-3.51-.14-7.16-.24-11-.09-7.77,0-14.08.24-16H0C.47,3.32.89,8.41,1.17,12.48c.51,8.24.33,14.37-.61,18.34H21.48a12.51,12.51,0,0,1-.19-1.4,5.37,5.37,0,0,1,.38-2.71Z" transform="translate(0 0)"/><path class="a" d="M85,2.46a15.18,15.18,0,0,0-2.39-.84A40.53,40.53,0,0,0,75.78.26Q66-1,59.08,3.77A14.25,14.25,0,0,0,55.33,8a16.83,16.83,0,0,0-2.2,6.27A13.13,13.13,0,0,0,54,21.42a16.14,16.14,0,0,0,5.62,6.69,15.66,15.66,0,0,0,5.29,2.15,25.69,25.69,0,0,0,6.46.8,24.17,24.17,0,0,0,6.46-.61,15.55,15.55,0,0,0,5.28-2.11L84,23.85a7.09,7.09,0,0,1-2.85,1.83,16.75,16.75,0,0,1-5,1.4A15.25,15.25,0,0,1,70.45,27a9.24,9.24,0,0,1-4.92-2.48A10.64,10.64,0,0,1,63,20.15a16,16,0,0,1-.75-5.24,15.24,15.24,0,0,1,.94-5.1,9.7,9.7,0,0,1,2.48-3.88A8.49,8.49,0,0,1,69,4.24a15.79,15.79,0,0,1,4.73-.7,14.35,14.35,0,0,1,5.47,1,6.52,6.52,0,0,1,3.22,3.33Z" transform="translate(0 0)"/><path class="a" d="M47.52,25.91a10.29,10.29,0,0,0,1.31-4.07A7.55,7.55,0,0,0,48,17.39a8.21,8.21,0,0,0-4.21-3.55c-3-1.27-5.19-2.16-6.55-2.76a17.8,17.8,0,0,1-4.54-2.3,1.78,1.78,0,0,1-.47-2.43A4.39,4.39,0,0,1,34.79,4a6,6,0,0,1,4.58,0A11.75,11.75,0,0,1,44.9,8.41l2.34-6A22,22,0,0,0,41.85.54a18.5,18.5,0,0,0-11.37.89,9.89,9.89,0,0,0-3.74,3.19,8.92,8.92,0,0,0-1.59,4.21,7,7,0,0,0,.7,4.21,6.66,6.66,0,0,0,3.23,3.18l9.22,4.17a4.62,4.62,0,0,1,2.34,1.87,2.8,2.8,0,0,1,.37,2.2,4.3,4.3,0,0,1-1.22,2.06,4.65,4.65,0,0,1-2.52,1.17,7.58,7.58,0,0,1-6.37-.94,8.87,8.87,0,0,1-2.29-1.92,6.58,6.58,0,0,1-1.36-2.1l-2.06,8a40.64,40.64,0,0,0,11.7.28c3.84-.46,6.65-1.31,8.43-2.62A6.39,6.39,0,0,0,47.52,25.91Z" transform="translate(0 0)"/><path class="a" d="M14.9,43.55a5.5,5.5,0,0,0-4.79-2.39,5.59,5.59,0,0,0-4.8,2.57,8.88,8.88,0,0,0-1.34,5,8.59,8.59,0,0,0,.55,3,5.58,5.58,0,0,0,1.61,2.37,6.24,6.24,0,0,0,1.12.73,10.2,10.2,0,0,0,1.36.43,8.58,8.58,0,0,0,1.27.14,9.54,9.54,0,0,0,1.65-.18,2.26,2.26,0,0,0,.53-.1A1.18,1.18,0,0,0,12.5,55s0,0,0-.12,0-.1,0-.1V52.91c0-.92-.05-2.18-.16-3.78a16.08,16.08,0,0,0,1.84.11,17.92,17.92,0,0,0,2-.11,35,35,0,0,0-.19,4c0,.63,0,1.54.08,2.74a24.88,24.88,0,0,1-6.37,1.05A13.62,13.62,0,0,1,6,56.38,9.45,9.45,0,0,1,2.9,54.86,7.09,7.09,0,0,1,.77,52.29,8.09,8.09,0,0,1,0,48.68a9.41,9.41,0,0,1,.76-3.89,7.74,7.74,0,0,1,2.15-2.85,9.2,9.2,0,0,1,3.21-1.72,13.55,13.55,0,0,1,3.94-.56,11.69,11.69,0,0,1,5.84,1.45,20,20,0,0,0-.66,2.44Z" transform="translate(0 0)"/><path class="a" d="M24.41,50.25c-.37-.67-.61-1.09-.71-1.23s-.12-.16-.19-.16-.11,0-.11.16c0,.47,0,1.18,0,2.15s0,1.68,0,2.15V54c0,.65.09,1.5.19,2.55l-1-.06c-.44,0-.77,0-1,0s-.54,0-1,0l-1,.06,0-.45,0-.6c0-.21,0-.37,0-.49s0-.28.05-.52c.08-1,.11-2.64.11-4.8,0-.48,0-1.21,0-2.2s0-1.72,0-2.21c0-1.15-.05-2.94-.15-5.39l1.68.07c.39,0,1,0,1.74,0l1.75,0a10.35,10.35,0,0,1,3.93.49A3.9,3.9,0,0,1,31,43.93a4.1,4.1,0,0,1-1,2.86,5,5,0,0,1-2.77,1.51q.93,1.7,4.31,6.85l.85,1.39-1.1-.06c-.5,0-.87,0-1.11,0-.72,0-1.45,0-2.2.11l-2.81-5Zm-.94-6.1v1.91c0,.77,0,1.36,0,1.76A4.08,4.08,0,0,0,26.32,47a3.47,3.47,0,0,0,.9-2.62,6.34,6.34,0,0,0-.11-1.24,2.39,2.39,0,0,0-.5-1.1,1.79,1.79,0,0,0-.81-.53,4.31,4.31,0,0,0-1.1-.17l-1.23,0Z" transform="translate(0 0)"/><path class="a" d="M49.42,54.7A10,10,0,0,1,42.71,57a9,9,0,0,1-6.62-2.43,8.3,8.3,0,0,1-2.4-6.26,8.17,8.17,0,0,1,2.89-6.51,10.18,10.18,0,0,1,6.7-2.25,9.42,9.42,0,0,1,5.65,1.65,7.29,7.29,0,0,1,2.62,3.15,9.8,9.8,0,0,1,.75,3.86,9,9,0,0,1-.74,3.57A8.2,8.2,0,0,1,49.42,54.7Zm-6.59.83a4.9,4.9,0,0,0,4.38-2.77,10.62,10.62,0,0,0,1-5,9.82,9.82,0,0,0-.54-3.23A5.79,5.79,0,0,0,46,42a4.29,4.29,0,0,0-2.89-1,4.53,4.53,0,0,0-2.73.83,5.23,5.23,0,0,0-1.72,2A12.06,12.06,0,0,0,37.74,49a9.4,9.4,0,0,0,.53,3.16A5.35,5.35,0,0,0,40,54.59a4.45,4.45,0,0,0,2.88.94Z" transform="translate(0 0)"/><path class="a" d="M69.88,42.46c0,.25,0,.57-.06,1s0,.66,0,1.2,0,.95,0,1.21,0,.74,0,1.34,0,1,0,1.34a19.43,19.43,0,0,1-.48,4.35,4.9,4.9,0,0,1-2.1,2.7,7.75,7.75,0,0,1-4.61,1.27,11.32,11.32,0,0,1-3-.38A6.28,6.28,0,0,1,57,55.17a4.83,4.83,0,0,1-1.5-2.41,5.6,5.6,0,0,1-.22-1.31,13.5,13.5,0,0,1-.07-1.68c0-.5,0-1,0-1.62s0-1,0-1.38V43.7c0-.3,0-.76,0-1.39s0-1.09,0-1.38c0-.11,0-.28,0-.51s0-.42,0-.54c1,.1,1.63.15,2,.15s1-.05,1.95-.15c0,.12,0,.31,0,.58s-.05.47-.07.62c-.12,2.12-.18,4-.18,5.69,0,2.22,0,3.75.15,4.61A9.78,9.78,0,0,0,59.39,53a3.23,3.23,0,0,0,.85,1.12A3.85,3.85,0,0,0,63,55.2a4.72,4.72,0,0,0,2.7-.69,4.87,4.87,0,0,0,1.65-2.24,18.67,18.67,0,0,0,.41-5.05c0-3.27-.07-5.72-.19-7.34a8.43,8.43,0,0,0,1.23.15,8.52,8.52,0,0,0,1.24-.15c0,.17,0,.42-.07.72s0,.64-.06,1,0,.64,0,.88Z" transform="translate(0 0)"/><path class="a" d="M73.68,39.88c.5,0,1.25.07,2.25.07.36,0,.88,0,1.55,0l1.52,0a15.72,15.72,0,0,1,2.62.15,4.2,4.2,0,0,1,2.43,1.42,4,4,0,0,1,.9,2.62,4.94,4.94,0,0,1-1.31,3.6,4.35,4.35,0,0,1-1.4,1,10.41,10.41,0,0,1-2,.5,12.32,12.32,0,0,1-1.5.1q-1,0-1.35.06c0,.36,0,.92,0,1.67s0,1.31,0,1.69c0,1.71.09,3,.14,3.82l-1-.06c-.45,0-.79,0-1,0s-.53,0-1,0l-1,.06c0-.15,0-.37,0-.65s0-.49,0-.62c.11-1.14.16-2,.16-2.66V48.9q0-2.17-.08-6.51c0-1.1,0-1.94-.08-2.51Zm3.75,4.3v2.07c0,.77,0,1.36,0,1.75A8.81,8.81,0,0,0,79,47.82c1.37-.36,2.06-1.46,2.06-3.3A3.39,3.39,0,0,0,80,41.68a4.49,4.49,0,0,0-2.47-.41Z" transform="translate(0 0)"/><path class="a" d="M8.46,73.45a5.39,5.39,0,0,1-3.61,1.23,4.82,4.82,0,0,1-3.56-1.31,4.86,4.86,0,0,1,.26-6.86,5.46,5.46,0,0,1,3.6-1.21,5,5,0,0,1,3,.89A3.93,3.93,0,0,1,9.6,67.88,5.2,5.2,0,0,1,10,70a4.69,4.69,0,0,1-.4,1.92A4.51,4.51,0,0,1,8.46,73.45Zm-1.19-1a5.74,5.74,0,0,0,.56-2.69A5.38,5.38,0,0,0,7.54,68a3.08,3.08,0,0,0-.92-1.37,2.26,2.26,0,0,0-1.55-.53,2.41,2.41,0,0,0-1.47.44,2.89,2.89,0,0,0-.92,1.08,6.41,6.41,0,0,0-.5,2.8,5,5,0,0,0,.28,1.7,2.83,2.83,0,0,0,.91,1.3,2.37,2.37,0,0,0,1.54.5A2.62,2.62,0,0,0,7.27,72.4Z" transform="translate(0 0)"/><path class="a" d="M11.47,65.48l1,0,1.07,0,1.57,0,1.39,0c0,.22,0,.54,0,1a.71.71,0,0,1,0,.16c-1.27-.11-2.27-.16-3-.16,0,.31,0,.76,0,1.37,0,.16,0,.4,0,.72s0,.56,0,.72l3-.1a3.9,3.9,0,0,0-.08.61,2.49,2.49,0,0,0,.08.5c-.87-.07-1.65-.1-2.33-.1h-.65v1.51l.11,2.76-.55,0-.54,0-.54,0-.53,0a3.32,3.32,0,0,0,0-.38c0-.17,0-.29,0-.37,0-.25,0-.65,0-1.2s0-1,0-1.25,0-.54,0-1,0-.78,0-1V67.74c0-.23,0-.58,0-1s0-.81,0-1Z" transform="translate(0 0)"/><path class="a" d="M30.38,72.93l-.28,1.12a5.51,5.51,0,0,1-2.59.55,9.76,9.76,0,0,1-1.71-.18,4.82,4.82,0,0,1-1.43-.65,3.8,3.8,0,0,1-.95-.93,4.17,4.17,0,0,1-.82-2.59,5.93,5.93,0,0,1,.34-2.1,4.09,4.09,0,0,1,1.17-1.62,5.48,5.48,0,0,1,3.7-1.19,5.52,5.52,0,0,1,2.65.63c0,.14-.08.35-.14.6s-.11.5-.16.72H30a2.73,2.73,0,0,0-.95-.83,2.71,2.71,0,0,0-2.94.25,3.28,3.28,0,0,0-1,1.46,5.7,5.7,0,0,0-.32,1.9,4.32,4.32,0,0,0,.77,2.66,2.77,2.77,0,0,0,1.05.82,3.11,3.11,0,0,0,1.3.28,3.28,3.28,0,0,0,1.25-.27,3.56,3.56,0,0,0,1.1-.69Z" transform="translate(0 0)"/><path class="a" d="M40,73.45a5.39,5.39,0,0,1-3.61,1.23,4.82,4.82,0,0,1-3.56-1.31,4.86,4.86,0,0,1,.26-6.86,5.47,5.47,0,0,1,3.61-1.21,5,5,0,0,1,3,.89,3.79,3.79,0,0,1,1.41,1.69,5.2,5.2,0,0,1,.4,2.07,4.69,4.69,0,0,1-.4,1.92A4.39,4.39,0,0,1,40,73.45Zm-1.19-1a5.74,5.74,0,0,0,.56-2.69A5.13,5.13,0,0,0,39.11,68a3,3,0,0,0-.92-1.37,2.26,2.26,0,0,0-1.55-.53,2.41,2.41,0,0,0-1.47.44,2.89,2.89,0,0,0-.92,1.08,6.41,6.41,0,0,0-.5,2.8,5,5,0,0,0,.28,1.7,2.83,2.83,0,0,0,.91,1.3,2.39,2.39,0,0,0,1.54.5A2.62,2.62,0,0,0,38.84,72.4Z" transform="translate(0 0)"/><path class="a" d="M43.05,65.48a9.65,9.65,0,0,0,1.06.08,10.13,10.13,0,0,0,1.07-.08q0,.39-.06,1.14c0,.5,0,.9,0,1.22s0,.84,0,1.53v2.47c0,.18,0,.45,0,.82s0,.64,0,.83l.72,0c.36,0,1.11,0,2.28-.14a2.48,2.48,0,0,0,0,.56,2.52,2.52,0,0,0,0,.57l-2.22-.08-.89,0-.88,0c-.24,0-.6,0-1.09,0,.08-1.12.12-2.54.12-4.25,0-.18,0-.44,0-.78s0-.61,0-.79,0-.8,0-1.44,0-1.12,0-1.43Z" transform="translate(0 0)"/><path class="a" d="M49.69,65.48a9.65,9.65,0,0,0,1.06.08,10.13,10.13,0,0,0,1.07-.08q0,.39-.06,1.14c0,.5,0,.9,0,1.22s0,.84,0,1.53v2.47c0,.18,0,.45,0,.82v.83l.73,0c.36,0,1.11,0,2.28-.14a2.48,2.48,0,0,0,0,.56,2.52,2.52,0,0,0,0,.57l-2.22-.08-.89,0-.88,0c-.24,0-.6,0-1.09,0,.08-1.12.12-2.54.12-4.25,0-.18,0-.44,0-.78s0-.61,0-.79,0-.8,0-1.44,0-1.12,0-1.43Z" transform="translate(0 0)"/><path class="a" d="M56.33,65.48l1,0,1.07,0,1.58,0,1.39,0c0,.22,0,.54,0,1a.63.63,0,0,1,0,.16c-1.28-.11-2.28-.16-3-.16,0,.31,0,.76,0,1.37,0,.16,0,.4,0,.72s0,.56,0,.72l3-.1a3.9,3.9,0,0,0-.08.61,2.49,2.49,0,0,0,.08.5c-.87-.07-1.64-.1-2.33-.1h-.65v3.32q1.22,0,3-.18c0,.21,0,.54,0,1a.79.79,0,0,1,0,.17l-1.18,0-1.18,0-.78,0-.77,0c-.24,0-.63,0-1.17,0,0-.09,0-.21,0-.38a3,3,0,0,1,0-.37q0-.37,0-1.2c0-.56,0-1,0-1.25s0-.54,0-1,0-.78,0-1V67.74c0-.23,0-.58,0-1s0-.81,0-1Z" transform="translate(0 0)"/><path class="a" d="M70.55,67.46A3,3,0,0,0,68,66.17a3,3,0,0,0-2.58,1.38,4.77,4.77,0,0,0-.73,2.7,4.65,4.65,0,0,0,.3,1.63,3,3,0,0,0,.87,1.27,3,3,0,0,0,.6.39,4.58,4.58,0,0,0,.73.23,3.53,3.53,0,0,0,.68.08,4.72,4.72,0,0,0,.89-.1,1.13,1.13,0,0,0,.29,0,.85.85,0,0,0,.23-.09.08.08,0,0,0,0-.06l0-.06v-1c0-.5,0-1.18-.08-2a8,8,0,0,0,1,.06,8.94,8.94,0,0,0,1-.06q-.09.92-.09,2.13,0,.51,0,1.47a13.15,13.15,0,0,1-3.41.57,7.21,7.21,0,0,1-2-.27,5.06,5.06,0,0,1-1.68-.82A3.65,3.65,0,0,1,63,72.15a4.26,4.26,0,0,1-.42-1.94A5.13,5.13,0,0,1,63,68.12a4.2,4.2,0,0,1,1.16-1.53,4.83,4.83,0,0,1,1.72-.92A7,7,0,0,1,68,65.36a6.28,6.28,0,0,1,3.14.78,12.87,12.87,0,0,0-.36,1.32Z" transform="translate(0 0)"/><path class="a" d="M73.25,65.48l1,0,1.07,0,1.57,0,1.39,0c0,.22,0,.54,0,1a.63.63,0,0,1,0,.16c-1.28-.11-2.27-.16-3-.16,0,.31,0,.76,0,1.37,0,.16,0,.4,0,.72s0,.56,0,.72l3-.1a3,3,0,0,0-.08.61,1.93,1.93,0,0,0,.08.5c-.87-.07-1.65-.1-2.34-.1h-.64v3.32c.81,0,1.81-.06,3-.18,0,.21,0,.54,0,1a.79.79,0,0,1,0,.17l-1.18,0-1.18,0-.78,0-.76,0c-.25,0-.64,0-1.17,0,0-.09,0-.21,0-.38s0-.29,0-.37c0-.25,0-.65,0-1.2s0-1,0-1.25,0-.54,0-1,0-.78,0-1V67.74c0-.23,0-.58,0-1s0-.81,0-1Z" transform="translate(0 0)"/><path class="a" d="M84,67.25a1.63,1.63,0,0,0-2.55-.76,1.14,1.14,0,0,0-.38.9,1,1,0,0,0,.39.8,7.7,7.7,0,0,0,1.27.78,13.57,13.57,0,0,1,1.36.79,2,2,0,0,1,.72.85A2.69,2.69,0,0,1,85,71.78a2.85,2.85,0,0,1-.3,1.23,2.75,2.75,0,0,1-1.39,1.26,4.14,4.14,0,0,1-1.77.35,3.88,3.88,0,0,1-2.11-.55,13.15,13.15,0,0,0,.38-1.65h.24a1.76,1.76,0,0,0,.64,1,1.89,1.89,0,0,0,1.17.36A1.73,1.73,0,0,0,83,73.47a1.16,1.16,0,0,0,.44-1,1.36,1.36,0,0,0-.48-1,10,10,0,0,0-1.47-.83,6.34,6.34,0,0,1-.59-.35c-.23-.15-.38-.25-.46-.29a1.73,1.73,0,0,1-.66-.83,2.93,2.93,0,0,1-.22-1.14,2.5,2.5,0,0,1,1-2,2.57,2.57,0,0,1,.92-.51,4,4,0,0,1,1.11-.14,3.65,3.65,0,0,1,2,.52s0,.05.1.09c-.14.41-.28.84-.41,1.28Z" transform="translate(0 0)"/></svg>